OpenSim_Sub09_CSBaseline_GRF.mot
version=1
nRows=71
nColumns=19
inDegrees=no
endheader
time	lFx	lFy	lFz	lCOPx	lCOPy	lCOPz	rFx	rFy	rFz	rCOPx	rCOPy	rCOPz	lMx	lMy	lMz	rMx	rMy	rMz
0	1.47571168	385.65276699	34.81624835	0.67804964	0	-0.66727789	6.69232039	358.10055398	-29.93962948	0.67464408	0	-0.34607644	0	0.03565266	0	0	0.15101031	0
0.01000000	1.76619717	386.07637889	34.95146180	0.67800081	0	-0.66735127	4.79236283	357.53604557	-30.40887545	0.67490771	0	-0.34617464	0	0.16540149	0	0	0.56121680	0
0.02000000	1.94028099	386.49395409	35.01060068	0.67796845	0	-0.66737903	3.89364232	356.74272447	-30.56639242	0.67488524	0	-0.34632876	0	0.23623758	0	0	0.76873546	0
0.03000000	1.99863793	386.83600219	34.97544703	0.67793240	0	-0.66738419	3.70672681	355.98052064	-30.52078635	0.67476747	0	-0.34645669	0	0.25934997	0	0	0.82351291	0
0.04000000	1.96032122	387.01360210	34.87627728	0.67796390	0	-0.66739248	3.78313587	355.31218398	-30.40801553	0.67476418	0	-0.34654536	0	0.25773834	0	0	0.80725823	0
0.05000000	1.87018334	386.97968393	34.74443999	0.67808772	0	-0.66743375	3.81049083	354.65039947	-30.28348248	0.67490149	0	-0.34658214	0	0.24214299	0	0	0.77843516	0.00000000
0.06000000	1.78386764	386.73538478	34.61053453	0.67823845	0	-0.66751392	3.68139207	353.84798216	-30.14399700	0.67519824	0	-0.34656367	0	0.21834458	0	0	0.75547114	0
0.07000000	1.72298506	386.27905304	34.49608684	0.67838085	0	-0.66759798	3.43651579	352.74320485	-29.98406495	0.67571661	0	-0.34655812	0	0.18612474	0	0	0.73861375	0
0.08000000	1.69268642	385.64426518	34.38170966	0.67857587	0	-0.66768362	3.15600296	351.37964678	-29.80088338	0.67636852	0	-0.34658446	0	0.14687860	0	0	0.71857951	0
0.09000000	1.64260487	384.92569693	34.27242524	0.67879695	0	-0.66778853	2.90906433	349.96280061	-29.62586302	0.67681428	0	-0.34664385	0	0.11265150	0	0	0.70381246	0
0.10000000	1.57486610	384.18893398	34.19258100	0.67898577	0	-0.66791859	2.72547564	348.77159458	-29.50329721	0.67694898	0	-0.34674444	0	0.08753901	0	0	0.70441403	0
0.11000000	1.51574534	383.36463259	34.14111984	0.67913306	0	-0.66804656	2.61591352	348.02202574	-29.44768071	0.67685121	0	-0.34685497	0	0.06993797	0	0	0.71794680	0
0.12000000	1.44888758	382.41538643	34.07515828	0.67930539	0	-0.66821589	2.59546067	347.77678427	-29.46848853	0.67668469	0	-0.34693108	0	0.05072855	0	0	0.72283009	0
0.13000000	1.33426732	381.38017963	33.97815144	0.67963142	0	-0.66844042	2.65572629	347.96129802	-29.55996010	0.67652195	0	-0.34693863	0	0.03967258	0	0	0.69934601	0.00000000
0.14000000	1.16596792	380.32359054	33.86230018	0.68010674	0	-0.66867065	2.75209807	348.44489340	-29.69571860	0.67647244	0	-0.34687217	0	0.02801678	0	0	0.66016361	0
0.15000000	0.95057372	379.28268190	33.74770834	0.68059670	0	-0.66884067	2.82227231	348.99002456	-29.83288659	0.67656848	0	-0.34676985	0	0.02032284	0	0	0.63775298	0
0.16000000	0.70741970	378.28637019	33.64643751	0.68095636	0	-0.66893370	2.84040947	349.50421126	-29.91867818	0.67678157	0	-0.34663364	0	0.02432514	0	0	0.62200934	0
0.17000000	0.48071423	377.34133827	33.56804110	0.68121180	0	-0.66899970	2.80169656	349.95707976	-29.96337638	0.67700250	0	-0.34648916	0	0.02695989	0	0	0.59950760	0.00000000
0.18000000	0.31898689	376.44603665	33.50970281	0.68147201	0	-0.66911809	2.69710636	350.32646543	-30.00772189	0.67718247	0	-0.34640915	0	0.01396030	0	0	0.57995793	0
0.19000000	0.24642757	375.50708053	33.44408186	0.68184140	0	-0.66929986	2.50275069	350.69154864	-30.06733584	0.67741413	0	-0.34637585	0	-0.00626442	0	0	0.57923940	0
0.20000000	0.23570630	374.40790555	33.33401082	0.68231886	0	-0.66952910	2.20950470	351.18606363	-30.14242780	0.67778988	0	-0.34633681	0	-0.02558728	0	0	0.60312731	0.00000000
0.21000000	0.24516505	373.08988176	33.17033284	0.68283335	0	-0.66979475	1.88288206	351.87520014	-30.23039581	0.67828907	0	-0.34625864	0	-0.04625352	0	0	0.62824965	0.00000000
0.22000000	0.23847158	371.56091656	32.94543698	0.68340172	0	-0.67008062	1.59957470	352.76001021	-30.30987571	0.67884357	0	-0.34613852	0	-0.07713940	0	0	0.64292209	0
0.23000000	0.18574941	369.86498248	32.67881688	0.68401431	0	-0.67032451	1.40247252	353.83084345	-30.39934820	0.67918840	0	-0.34600012	0	-0.11140277	0	0	0.65997770	0
0.24000000	0.08568235	368.01247416	32.41823461	0.68460921	0	-0.67048108	1.30424833	355.04091397	-30.51393933	0.67928958	0	-0.34586976	0	-0.14401775	0	0	0.67353007	-0.00000000
0.25000000	-0.04864521	366.13946502	32.19032295	0.68515627	0	-0.67054523	1.29396397	356.29890957	-30.63140014	0.67938286	0	-0.34576243	0	-0.16106905	0	0	0.66772840	0
0.26000000	-0.20816886	364.35085861	31.96919966	0.68567286	0	-0.67053634	1.35992089	357.44406079	-30.72382204	0.67959644	0	-0.34570529	0	-0.15750763	0	0	0.64503513	0.00000000
0.27000000	-0.35579412	362.76582141	31.74267167	0.68614006	0	-0.67049660	1.47366208	358.40431061	-30.78942538	0.67972773	0	-0.34571005	0	-0.13305691	0	0	0.62569342	0
0.28000000	-0.46016415	361.35200551	31.48634718	0.68650288	0	-0.67049496	1.59049859	359.31382568	-30.82850109	0.67965565	0	-0.34573383	0	-0.10526826	0	0	0.63651547	0
0.29000000	-0.52167149	359.93176208	31.18556798	0.68680043	0	-0.67057786	1.68300752	360.47311525	-30.84715666	0.67950576	0	-0.34568666	0	-0.10346176	0	0	0.67018927	0
0.30000000	-0.56754982	358.39336803	30.85380471	0.68709612	0	-0.67073490	1.72247560	361.97585196	-30.88902436	0.67945143	0	-0.34555088	0	-0.13003469	0	0	0.71716089	0
0.31000000	-0.60594493	356.73422098	30.52458387	0.68732189	0	-0.67092982	1.71346470	363.61272817	-30.99847274	0.67963183	0	-0.34541025	0	-0.17151569	0	0	0.76791577	0
0.32000000	-0.61151516	355.00579216	30.22859832	0.68743620	0	-0.67109701	1.66588398	365.16671282	-31.15857140	0.67995929	0	-0.34530263	0	-0.19305250	0	0	0.81389550	0.00000000
0.33000000	-0.59786826	353.23248328	29.97568592	0.68749772	0	-0.67122971	1.60231688	366.54819962	-31.35343827	0.68029091	0	-0.34519101	0	-0.18243547	0	0	0.84345533	0
0.34000000	-0.58218616	351.46817541	29.77114937	0.68762537	0	-0.67133825	1.53985248	367.82361372	-31.55234554	0.68061122	0	-0.34509187	0	-0.16626824	0	0	0.85339506	-0.00000000
0.35000000	-0.54655612	349.88284134	29.61480191	0.68784627	0	-0.67140792	1.50495374	369.08643639	-31.74848304	0.68092398	0	-0.34505144	0	-0.16145464	0	0	0.84827396	0
0.36000000	-0.47758051	348.54580890	29.49833281	0.68796029	0	-0.67142078	1.51182927	370.39441713	-31.95371383	0.68122694	0	-0.34504726	0	-0.16333082	0	0	0.82933217	0.00000000
0.37000000	-0.38571701	347.36194250	29.40588437	0.68787577	0	-0.67136094	1.55297320	371.80263454	-32.16292680	0.68149486	0	-0.34500370	0	-0.15809097	0	0	0.80731573	-0.00000000
0.38000000	-0.28631287	346.21792003	29.30250682	0.68771147	0	-0.67125999	1.61760705	373.33437487	-32.38962861	0.68163921	0	-0.34490551	0	-0.13715622	0	0	0.79578812	0
0.39000000	-0.16658913	345.07805576	29.15767548	0.68759507	0	-0.67115479	1.72967565	374.94527768	-32.65742664	0.68163923	0	-0.34480757	0	-0.09816624	0	0	0.80341647	0
0.40000000	-0.03341617	344.01052468	28.97986003	0.68758133	0	-0.67104668	1.91431683	376.68042196	-32.97933575	0.68160189	0	-0.34474217	0	-0.04139623	0	0	0.82476945	0
0.41000000	0.10046615	343.19909754	28.78043305	0.68767498	0	-0.67095425	2.13966985	378.54317059	-33.33808523	0.68148507	0	-0.34469764	0	0.01922213	0	0	0.84146813	-0.00000000
0.42000000	0.21666798	342.80955657	28.59414581	0.68767917	0	-0.67085290	2.36187046	380.47418538	-33.71038512	0.68130946	0	-0.34467674	0	0.07331260	0	0	0.84576771	0
0.43000000	0.29759508	342.70726798	28.44161229	0.68752577	0	-0.67069652	2.52539919	382.35709456	-34.04903245	0.68107800	0	-0.34465119	0	0.12132950	0	0	0.83648984	0
0.44000000	0.35338912	342.63372094	28.30932060	0.68723829	0	-0.67047772	2.58780250	384.08173324	-34.32567614	0.68100394	0	-0.34460379	0	0.17607184	0	0	0.82065522	0
0.45000000	0.40655241	342.28780078	28.14259842	0.68688817	0	-0.67025012	2.56222831	385.58255039	-34.55326583	0.68120338	0	-0.34452885	0	0.23188579	0	0	0.80896855	0
0.46000000	0.50456710	341.51497356	27.92638881	0.68654603	0	-0.67000761	2.48739071	386.88711346	-34.76527061	0.68164672	0	-0.34442823	0	0.28508610	0	0	0.78537107	0.00000000
0.47000000	0.66867741	340.55154996	27.68099353	0.68619677	0	-0.66971768	2.36629693	387.98874404	-34.99590373	0.68214949	0	-0.34433698	0	0.34360534	0	0	0.74782776	0
0.48000000	0.88132210	339.78437979	27.40851522	0.68589680	0	-0.66939759	2.24915489	388.86210926	-35.26984678	0.68245812	0	-0.34429345	0	0.40737798	0	0	0.71404223	0
0.49000000	1.11834322	339.39165569	27.12367521	0.68560764	0	-0.66906175	2.19676215	389.56037057	-35.57814109	0.68249462	0	-0.34429046	0	0.47856493	0	0	0.70252530	0
0.50000000	1.38478779	339.26004197	26.82675217	0.68519855	0	-0.66870595	2.21637877	390.19251424	-35.84684482	0.68240546	0	-0.34426758	0	0.55380251	0	0	0.71262035	0.00000000
0.51000000	1.67273731	339.27199772	26.53815222	0.68467458	0	-0.66832948	2.30905572	390.80308849	-35.99937888	0.68240451	0	-0.34423460	0	0.63140651	0	0	0.72974122	0.00000000
0.52000000	1.96386756	339.29034811	26.26134592	0.68415163	0	-0.66793921	2.43954876	391.41502507	-36.03880017	0.68245964	0	-0.34422549	0	0.71094479	0	0	0.75243204	0.00000000
0.53000000	2.26433102	339.24328954	25.98517125	0.68365751	0	-0.66753658	2.56142606	392.04558847	-36.02561823	0.68244504	0	-0.34422347	0	0.80785761	0	0	0.77609594	0
0.54000000	2.59959724	339.38459057	25.73063150	0.68314582	0	-0.66714381	2.64797720	392.70243235	-36.06627752	0.68247220	0	-0.34421597	0	0.91019227	0	0	0.78526868	0
0.55000000	2.92190216	340.09499026	25.57221630	0.68278689	0	-0.66679805	2.68390453	393.42499429	-36.23589973	0.68267726	0	-0.34418885	0	0.99833245	0	0	0.79489074	0
0.56000000	3.11478699	341.53692940	25.56761502	0.68286520	0	-0.66655743	2.65574843	394.22436539	-36.55962599	0.68302918	0	-0.34413039	0	1.06875652	0	0	0.83031035	0
0.57000000	3.07914122	343.60944338	25.71254505	0.68340930	0	-0.66648610	2.55548396	394.95959031	-37.02882563	0.68337460	0	-0.34405986	0	1.11475643	0	0	0.88055129	0
0.58000000	2.83905212	346.05896995	25.98789315	0.68428387	0	-0.66654272	2.41350314	395.46099110	-37.54867487	0.68367983	0	-0.34399292	0	1.14364897	0	0	0.91060156	0
0.59000000	2.47408894	348.53324538	26.37558146	0.68523679	0	-0.66665066	2.25815617	395.69645809	-38.00341795	0.68400771	0	-0.34393429	0	1.14901333	0	0	0.90564910	0
0.60000000	2.08076821	350.77810557	26.80202484	0.68620258	0	-0.66681923	2.12671460	395.69761494	-38.31252752	0.68432369	0	-0.34390355	0	1.10072151	0	0	0.87934199	0
0.61000000	1.73984248	352.80096181	27.19153092	0.68721548	0	-0.66704649	2.04702561	395.55934990	-38.46690047	0.68453745	0	-0.34387790	0	1.01787692	0	0	0.86660121	-0.00000000
0.62000000	1.48776456	354.84409113	27.52688714	0.68822347	0	-0.66730432	2.01587719	395.42014053	-38.49833744	0.68474850	0	-0.34383208	0	0.94977376	0	0	0.86130967	0
0.63000000	1.32714626	357.30317215	27.83812811	0.68908966	0	-0.66757572	2.02728109	395.30690789	-38.47461768	0.68503985	0	-0.34379913	0	0.90180381	0	0	0.86201223	0
0.64000000	1.24808164	360.53337400	28.19802885	0.68972231	0	-0.66781452	2.04166646	395.18265327	-38.46043401	0.68542358	0	-0.34378458	0	0.86165694	0	0	0.86275617	-0.00000000
0.65000000	1.23260483	364.63382875	28.66672226	0.69026529	0	-0.66800071	1.99898080	394.96772079	-38.47330329	0.68579222	0	-0.34375501	0	0.84345449	0	0	0.86816172	0
0.66000000	1.23989739	369.45724908	29.28375415	0.69081044	0	-0.66816996	1.85051954	394.42030074	-38.48104724	0.68609910	0	-0.34369821	0	0.83063481	0	0	0.88008170	0.00000000
0.67000000	1.19138099	374.69548979	30.00622822	0.69127299	0	-0.66841266	1.61471614	393.30378549	-38.39431983	0.68647864	0	-0.34361310	0	0.79377363	0	0	0.89002013	0
0.68000000	1.01885639	379.87722759	30.75649804	0.69153134	0	-0.66872066	1.30469080	391.46685245	-38.16866214	0.68700401	0	-0.34352517	0	0.72533475	0	0	0.89946846	0.00000000
0.69000000	0.69788704	384.61380752	31.50014388	0.69162793	0	-0.66904906	0.95337721	388.96951211	-37.84595296	0.68759297	0	-0.34344119	0	0.64692440	0	0	0.91439481	0
0.70000000	0.31217165	388.80855864	32.21226639	0.69176524	0	-0.66938874	0.60870796	385.97719115	-37.46867058	0.68808860	0	-0.34335364	0	0.58594872	0	0	0.93296845	0
